Patient4_TMGait_0pt3_03_left_32_EMG.mot
version=1
nRows=13
nColumns=33
inDegrees=no
endheader
time	1LAddLong	2LGlutMax	3LGlutMed	4LIliopsoas	5LSemiMemb	6LBicFemLong	7LRecFem	8LVastMed	9LVastLat	10LGasMed	11LTibAnt	12lTibPost	13LPeroneusLong	14LSol	15LExtDigLong	16LFlexDigLong	17RAddLong	18RGlutMax	19RGlutMed	20RIliopsoas	21RSemiMemb	22RBicFemLong	23RRecFem	24RVastMed	25RVastLat	26RGasMed	27RTibAnt	28RTibPost	29RPeroneusLong	30RSol	31RExtDigLong	32RFlexDigLong
58.15	0.005493	-0.083466	0.10696	0.000305	0.020752	-0.12054	0.060425	0.005341	0.017548	-0.10239	-0.011292	0.003815	0.069275	-0.039825	0.010834	0.001373	-0.023804	0.028381	0.14526	0.21179	0.15305	-0.001526	0.024719	-0.068359	0.088196	0.007172	0.14862	-0.008087	0.021667	0.14572	-0.006409	-0.014038
58.151	0.016327	-0.11154	0.040436	-0.006714	0.074921	-0.13016	0.095062	-0.000305	0.011139	-0.059204	-0.010529	-0.000916	-0.015106	-0.032654	0.002899	0.000153	-0.032654	-0.026245	0.27542	0.21378	0.11261	0.045929	-0.020905	-0.043793	0.046844	0.004578	0.13825	0.004883	0.019379	0.10284	-0.001068	-0.011292
58.152	0.00824	-0.088806	0.024414	0.007629	0.087433	-0.075531	0.11917	-0.007477	0.054474	-0.05188	-0.001373	0.002136	-0.076141	-0.027466	0.03479	0.015869	-0.021973	-0.022736	-0.015564	0.13641	0.11688	0.027924	-0.017853	-0.063477	-0.04364	0.007935	0.11612	-0.006866	0.00824	0.094147	-0.009003	-0.014801
58.153	0.005646	-0.11429	0.010681	0.010529	0.04837	-0.009918	0.11978	-0.006561	0.028534	-0.027161	0.001678	0.003357	-0.061646	-0.074463	0.023499	0.015717	-0.011902	-0.029907	-0.10346	0.036163	0.11215	0.015259	0.017242	-0.059052	-0.12512	0.005188	0.11856	-0.00351	0.027771	0.11459	-0.003815	-0.011292
58.154	0.016022	-0.1062	0.025482	0.004272	0.022583	-0.026245	0.056305	0.006866	0.00885	0.032806	0.007477	0.000763	-0.013428	-0.009155	0.006561	0.005188	-0.019989	-0.013275	0.042419	-0.065765	0.061188	-0.025787	0.042572	-0.074158	-0.18021	0.004272	0.099182	-0.006866	0.037079	0.11871	-0.001831	-0.006104
58.155	0.014648	-0.11231	0.016937	0.003357	0.009155	0.002136	0.054016	0.005341	0.010529	0.076752	-0.003052	-0.000458	0.013123	-0.088196	-0.032349	-0.007629	0.009918	0.007324	0.084229	-0.029144	0.056305	-0.049744	0.006256	-0.079651	-0.1828	0.010223	0.027771	-0.002136	0.050659	0.083618	-0.010071	-0.012207
58.156	0.009918	-0.098419	0.000305	0.010986	-0.006256	0.018005	0.045013	0.000916	0.014954	0.1442	0.011597	0.003204	0.04425	-0.224	-0.044556	-0.015869	0.036316	-0.040131	0.01709	-0.016174	0.10773	-0.037384	-0.04715	-0.049286	-0.10376	0.003662	0.035858	-0.003815	0.057678	0.071259	0.000458	-0.023041
58.157	0.00412	-0.1059	-0.015717	0.00473	-0.006409	0.000763	0.044556	-0.000763	0.003662	0.19852	0.001373	0.002289	0.075378	-0.19592	-0.043793	-0.011597	0.067749	-0.023804	-0.042725	0.029602	0.19455	-0.034027	-0.13077	-0.085297	0.062561	0.003815	0.061798	-0.006866	0.077667	0.043182	-0.001678	-0.020752
58.158	0.00412	-0.11581	-0.01709	-0.00412	0.025635	-0.018921	0.054932	0.002747	0.013123	0.21942	0.007935	0.009308	0.091095	-0.20813	-0.032806	-0.002136	0.081024	-0.024261	0.069885	-0.10651	0.23346	-0.083008	-0.16617	-0.063171	0.10147	-0.000305	0.052338	-0.002441	0.22247	0.062408	-0.006714	-0.01236
58.159	0.006714	-0.12604	-0.017242	0.009918	0.028381	0.008392	0.075226	0.000153	-0.002441	0.19409	0.001678	0.005646	0.062103	-0.22522	-0.016022	0.003662	0.06073	-0.051422	0.048676	-0.22705	0.27298	-0.00061	-0.057983	-0.092621	0.080414	0.000763	0.020752	-0.002594	0.24628	0.063019	-0.002441	-0.013123
58.16	0.000153	-0.060272	-0.016632	-0.002289	0.044861	0.001678	0.054321	-0.00473	-0.01297	0.035706	0.001678	0.01297	0.015564	-0.25497	0.00412	-0.001373	-0.001526	-0.028687	-0.042572	-0.21698	0.14328	0.007782	0.009308	0.022736	0.15076	0.001221	0.048065	-0.006256	-0.15671	0.03418	-0.006866	-0.018616
58.161	0.007172	-0.11276	0.03067	0.003815	0.03418	0.003815	-0.007324	0.008545	-0.043793	-0.039215	0.010071	0.005798	-0.006714	-0.11551	0.003052	-0.009003	-0.007477	-0.0177	-0.080566	-0.007935	0.002289	-0.044403	0.068512	0.020294	0.11475	0.003204	0.044556	-0.015259	-0.70816	0.003204	-0.00412	-0.016937
58.162	0.00824	-0.093536	0.015106	0.005798	0.018921	0.018616	0.035248	0.009918	-0.071411	0.034485	0.011139	0.007629	-0.008392	0.14297	0.014954	-0.002289	-0.011749	-0.05661	-0.026245	0.25757	0.008087	0.055237	0.056915	-0.027161	0.042267	0.00061	0.061951	-0.002899	-0.97427	0.000916	-0.006866	-0.00412
